<?xml version="1.0" encoding="UTF-8"?> <!-- Generator: Adobe Illustrator 23.0.1, SVG Export Plug-In . SVG Version: 6.00 Build 0) --> <svg xmlns="http://www.w3.org/2000/svg" xmlns:xlink="http://www.w3.org/1999/xlink" id="Layer_1" x="0px" y="0px" viewBox="0 0 459.92 280.47" style="enable-background:new 0 0 459.92 280.47;" xml:space="preserve"> <style type="text/css"> .st0{clip-path:url(#SVGID_2_);fill:url(#SVGID_3_);} .st1{clip-path:url(#SVGID_5_);fill:url(#SVGID_6_);} .st2{clip-path:url(#SVGID_8_);fill:url(#SVGID_9_);} .st3{clip-path:url(#SVGID_11_);fill:url(#SVGID_12_);} .st4{clip-path:url(#SVGID_14_);fill:url(#SVGID_15_);} .st5{clip-path:url(#SVGID_17_);fill:url(#SVGID_18_);} .st6{clip-path:url(#SVGID_20_);fill:url(#SVGID_21_);} .st7{fill:#48484A;} </style> <g> <g> <defs> <polygon id="SVGID_1_" points="31.42,26.36 47.39,36.77 47.24,93.91 31.27,83.49 "></polygon> </defs> <clipPath id="SVGID_2_"> <use xlink:href="#SVGID_1_" style="overflow:visible;"></use> </clipPath> <linearGradient id="SVGID_3_" gradientUnits="userSpaceOnUse" x1="29.9596" y1="67.9445" x2="129.6244" y2="-15.1773"> <stop offset="0" style="stop-color:#B13491"></stop> <stop offset="1" style="stop-color:#42B1E5"></stop> </linearGradient> <rect x="31.27" y="26.36" class="st0" width="16.12" height="67.55"></rect> </g> <g> <defs> <path id="SVGID_4_" d="M66.47,20.13h-0.11c-2.4,0.01-5,0.28-7.82,0.81l-27.11,5.42l15.97,10.41l27.11-5.42 c8.34-1.58,14.84-0.86,19.48,2.17L78.01,23.11C74.96,21.12,71.11,20.13,66.47,20.13"></path> </defs> <clipPath id="SVGID_5_"> <use xlink:href="#SVGID_4_" style="overflow:visible;"></use> </clipPath> <linearGradient id="SVGID_6_" gradientUnits="userSpaceOnUse" x1="24.4999" y1="60.3033" x2="121.6644" y2="-20.7252"> <stop offset="0" style="stop-color:#B13491"></stop> <stop offset="1" style="stop-color:#42B1E5"></stop> </linearGradient> <rect x="31.42" y="20.13" class="st1" width="62.55" height="16.64"></rect> </g> <g> <defs> <path id="SVGID_7_" d="M31.42,26.36l27.11-5.42c9.2-1.74,16.14-0.69,20.84,3.17c4.69,3.87,7.03,10.41,7,19.63 c-0.03,10.37-2.89,18.33-8.56,23.91c-5.68,5.56-15.32,9.65-28.89,12.22l-17.65,3.62L31.42,26.36z M58.41,4.83L5.32,15.17 l-0.24,90.28l48.04-9.39c8.55-1.62,15.56-3.51,21.05-5.67c5.48-2.14,10.08-4.8,13.77-7.94c5.94-5,10.56-11.18,13.83-18.54 c3.28-7.36,4.94-15.26,4.96-23.7c0.04-14.23-4.12-24.42-12.46-30.58c-5.64-4.16-12.93-6.24-21.87-6.24 C68.13,3.39,63.46,3.87,58.41,4.83z"></path> </defs> <clipPath id="SVGID_8_"> <use xlink:href="#SVGID_7_" style="overflow:visible;"></use> </clipPath> <linearGradient id="SVGID_9_" gradientUnits="userSpaceOnUse" x1="-13.7173" y1="156.4944" x2="78.7808" y2="20.9381"> <stop offset="0" style="stop-color:#DE0885"></stop> <stop offset="1" style="stop-color:#55BDEC"></stop> </linearGradient> <rect x="5.09" y="3.39" class="st2" width="101.7" height="102.06"></rect> </g> <g> <defs> <path id="SVGID_10_" d="M106.74,40.22c-0.02,8.43-1.67,16.33-4.96,23.7c-3.27,7.36-7.89,13.55-13.83,18.54 c-3.7,3.15-8.29,5.8-13.77,7.94c-5.49,2.15-12.5,4.05-21.05,5.67l-48.04,9.39l15.97,10.41l48.04-9.39 c8.55-1.62,15.57-3.51,21.05-5.67c5.49-2.14,10.08-4.8,13.77-7.95c5.94-4.99,10.57-11.18,13.84-18.54 c3.28-7.36,4.94-15.26,4.96-23.69c0.04-14.24-4.12-24.42-12.47-30.58L94.28,9.63C102.63,15.8,106.78,25.98,106.74,40.22z"></path> </defs> <clipPath id="SVGID_11_"> <use xlink:href="#SVGID_10_" style="overflow:visible;"></use> </clipPath> <linearGradient id="SVGID_12_" gradientUnits="userSpaceOnUse" x1="17.6588" y1="132.4128" x2="96.1579" y2="14.199"> <stop offset="0" style="stop-color:#9A2479"></stop> <stop offset="1" style="stop-color:#2679B6"></stop> </linearGradient> <rect x="5.09" y="9.63" class="st3" width="117.67" height="106.23"></rect> </g> <g> <defs> <polygon id="SVGID_13_" points="5.06,125.41 4.98,153.24 31.12,148.28 31.2,120.46 "></polygon> </defs> <clipPath id="SVGID_14_"> <use xlink:href="#SVGID_13_" style="overflow:visible;"></use> </clipPath> <linearGradient id="SVGID_15_" gradientUnits="userSpaceOnUse" x1="-6.2981" y1="172.5781" x2="86.8251" y2="36.1496"> <stop offset="0" style="stop-color:#DE0885"></stop> <stop offset="1" style="stop-color:#55BDEC"></stop> </linearGradient> <rect x="4.98" y="120.46" class="st4" width="26.21" height="32.78"></rect> </g> <g> <defs> <polygon id="SVGID_16_" points="31.12,148.28 47.09,158.69 47.17,130.87 31.2,120.46 "></polygon> </defs> <clipPath id="SVGID_17_"> <use xlink:href="#SVGID_16_" style="overflow:visible;"></use> </clipPath> <linearGradient id="SVGID_18_" gradientUnits="userSpaceOnUse" x1="30.9317" y1="151.9363" x2="109.9542" y2="32.9957"> <stop offset="0" style="stop-color:#B0519E"></stop> <stop offset="1" style="stop-color:#42B1E5"></stop> </linearGradient> <rect x="31.12" y="120.46" class="st5" width="16.04" height="38.23"></rect> </g> <g> <defs> <polygon id="SVGID_19_" points="4.98,153.24 20.95,163.65 47.09,158.69 31.12,148.28 "></polygon> </defs> <clipPath id="SVGID_20_"> <use xlink:href="#SVGID_19_" style="overflow:visible;"></use> </clipPath> <linearGradient id="SVGID_21_" gradientUnits="userSpaceOnUse" x1="22.7932" y1="160.7762" x2="123.1703" y2="11.9041"> <stop offset="0" style="stop-color:#9A2479"></stop> <stop offset="1" style="stop-color:#2679B6"></stop> </linearGradient> <rect x="4.98" y="148.28" class="st6" width="42.11" height="15.37"></rect> </g> <path class="st7" d="M84.8,194.98v-53.61h20.11c4.73,0,8.64,0.71,11.73,2.14c3.09,1.43,5.53,3.35,7.33,5.77 c1.79,2.42,3.04,5.25,3.74,8.49c0.7,3.25,1.05,6.66,1.05,10.25c0,3.58-0.4,7.01-1.21,10.29c-0.81,3.27-2.14,6.14-4.01,8.61 c-1.87,2.47-4.36,4.43-7.48,5.88c-3.12,1.45-6.99,2.18-11.61,2.18H84.8z M96.41,149.55v37.25h7.09c1.35,0,2.81-0.22,4.36-0.66 c1.56-0.44,3-1.32,4.32-2.65c1.33-1.32,2.43-3.18,3.31-5.57c0.88-2.39,1.33-5.53,1.33-9.43c0-3.95-0.42-7.15-1.25-9.62 c-0.83-2.47-1.88-4.39-3.16-5.77c-1.27-1.38-2.7-2.31-4.29-2.8c-1.58-0.49-3.13-0.74-4.64-0.74H96.41z"></path> <path class="st7" d="M140.05,156.72h11.14v38.26h-11.14V156.72z M140.05,140.12h11.14v10.47h-11.14V140.12z"></path> <path class="st7" d="M167.87,179.79c-1.35-0.78-2.49-1.97-3.43-3.58c-0.94-1.61-1.4-3.66-1.4-6.16c0-2.55,0.49-4.71,1.48-6.51 c0.99-1.79,2.3-3.27,3.93-4.44c1.64-1.17,3.51-2.02,5.61-2.57c2.1-0.55,4.27-0.82,6.51-0.82c1.51,0,2.97,0.08,4.4,0.23 c1.43,0.16,2.66,0.39,3.7,0.7h13.72v5.61h-5.45l-0.23,0.39c0.73,0.93,1.25,2.04,1.56,3.31c0.31,1.27,0.47,2.51,0.47,3.7 c0,2.18-0.46,4.1-1.37,5.77c-0.91,1.66-2.17,3.05-3.78,4.17c-1.61,1.12-3.48,1.96-5.61,2.53c-2.13,0.57-4.42,0.86-6.86,0.86 l-4.44,0.08c-1.45,0-2.61,0.18-3.47,0.55c-0.86,0.36-1.29,0.99-1.29,1.87c0,0.57,0.27,1.03,0.82,1.36 c0.55,0.34,1.29,0.51,2.22,0.51h11.22c4.83,0,8.6,0.91,11.3,2.73c2.7,1.82,4.05,4.7,4.05,8.65c0,1.76-0.42,3.44-1.25,5.03 c-0.83,1.58-2.13,2.99-3.9,4.21c-1.77,1.22-4.06,2.2-6.9,2.92c-2.83,0.73-6.22,1.09-10.17,1.09c-3.79,0-6.86-0.33-9.2-0.97 c-2.34-0.65-4.16-1.49-5.45-2.53c-1.3-1.04-2.17-2.21-2.61-3.51c-0.44-1.3-0.66-2.6-0.66-3.9c0-1.92,0.48-3.61,1.44-5.06 c0.96-1.45,2.09-2.54,3.39-3.27c-2.81-0.88-4.21-2.75-4.21-5.61c0-1.92,0.57-3.43,1.72-4.52c1.14-1.09,2.47-1.92,3.97-2.49 L167.87,179.79z M175.5,194.05c-0.88,0.36-1.66,1.04-2.34,2.03c-0.68,0.99-1.01,1.97-1.01,2.96c0,0.73,0.12,1.43,0.35,2.1 c0.23,0.67,0.66,1.26,1.29,1.75c0.62,0.49,1.51,0.9,2.65,1.21c1.14,0.31,2.62,0.47,4.44,0.47c3.12,0,5.45-0.51,7.01-1.52 c1.56-1.01,2.34-2.35,2.34-4.01c0-0.62-0.08-1.24-0.23-1.83c-0.16-0.6-0.47-1.13-0.94-1.6c-0.47-0.47-1.12-0.84-1.95-1.13 c-0.83-0.28-1.9-0.43-3.2-0.43H175.5z M187.82,169.58c0-0.83-0.12-1.65-0.35-2.46c-0.23-0.8-0.62-1.52-1.17-2.14 c-0.55-0.62-1.27-1.13-2.18-1.52c-0.91-0.39-2.01-0.58-3.31-0.58c-2.39,0-4.13,0.63-5.22,1.91c-1.09,1.27-1.64,2.9-1.64,4.87 c0,2.03,0.56,3.61,1.67,4.75c1.12,1.14,2.69,1.72,4.72,1.72c2.13,0,3.91-0.51,5.34-1.52C187.1,173.59,187.82,171.91,187.82,169.58z "></path> <path class="st7" d="M248.21,146.12v10.52h11.14v7.32h-11.14v17.3c0,2.02,0.36,3.52,1.09,4.48c0.73,0.96,2.08,1.44,4.05,1.44 c0.73,0,1.66-0.09,2.81-0.27c1.14-0.18,2.42-0.43,3.82-0.74l1.4,7.25c-1.66,0.73-3.48,1.27-5.46,1.64 c-1.98,0.36-3.79,0.55-5.45,0.55c-2.65,0-4.83-0.31-6.55-0.94c-1.72-0.62-3.07-1.45-4.05-2.49c-0.99-1.04-1.68-2.25-2.06-3.63 c-0.39-1.38-0.59-2.82-0.59-4.32v-20.26h-5.38v-6.08l6.08-1.79c0.16-0.31,0.36-0.91,0.62-1.79c0.26-0.88,0.52-1.82,0.78-2.81 c0.26-0.98,0.52-1.92,0.78-2.8c0.26-0.88,0.44-1.48,0.55-1.79L248.21,146.12z"></path> <path class="st7" d="M301.12,187.58h4.99l0.55,6.24c-1.25,0.57-2.7,1.04-4.36,1.4c-1.66,0.36-3.33,0.55-4.99,0.55 c-1.66,0-3.05-0.29-4.17-0.86c-1.12-0.57-1.78-1.82-1.99-3.74l-0.16-0.16c-1.35,1.2-2.7,2.1-4.05,2.73 c-1.35,0.63-2.61,1.09-3.78,1.4c-1.17,0.31-2.23,0.49-3.19,0.55c-0.96,0.05-1.7,0.08-2.22,0.08c-2.39,0-4.35-0.38-5.88-1.13 c-1.53-0.75-2.74-1.69-3.62-2.81c-0.88-1.12-1.49-2.32-1.83-3.62c-0.34-1.3-0.51-2.49-0.51-3.58c0-1.97,0.36-3.7,1.09-5.18 c0.73-1.48,1.73-2.73,3-3.74c1.27-1.01,2.77-1.81,4.48-2.38c1.71-0.57,3.58-0.91,5.61-1.01c1.51-0.1,3.25-0.21,5.22-0.31 c1.97-0.1,3.71-0.21,5.22-0.31v-0.94c0-2.18-0.47-3.83-1.4-4.95c-0.94-1.12-2.83-1.67-5.69-1.67c-1.87,0-3.91,0.18-6.12,0.55 c-2.21,0.37-4.22,0.83-6.04,1.4c-0.26-1.2-0.55-2.36-0.86-3.51c-0.31-1.14-0.62-2.29-0.93-3.43c2.29-0.99,4.94-1.77,7.95-2.34 c3.01-0.57,5.89-0.86,8.65-0.86c2.29,0,4.36,0.23,6.23,0.7c1.87,0.47,3.46,1.22,4.76,2.26c1.3,1.04,2.3,2.4,3,4.09 c0.7,1.69,1.05,3.78,1.05,6.27V187.58z M282.81,178.46c-3.58,0.31-5.38,2.05-5.38,5.22c0,1.61,0.41,2.83,1.25,3.66 c0.83,0.83,2.16,1.25,3.98,1.25c1.19,0,2.49-0.3,3.89-0.9c1.4-0.6,2.73-1.44,3.98-2.53v-7.32L282.81,178.46z"></path> <polygon class="st7" points="325.82,194.98 314.68,194.98 314.68,139.19 325.9,139.19 "></polygon> <path class="st7" d="M84.72,255.94V222.9h20.34c6.13,0,10.73,1.48,13.79,4.44c3.06,2.96,4.6,6.96,4.6,12 c0,1.92-0.31,3.87-0.93,5.84c-0.62,1.98-1.64,3.75-3.04,5.34c-1.4,1.59-3.21,2.88-5.42,3.9c-2.21,1.01-4.9,1.52-8.06,1.52H84.72z M96.29,264.12l0.04,12.39H84.72v-12.5L96.29,264.12z M96.25,231.08v16.99h7.56c1.04,0,2.04-0.14,3-0.43 c0.96-0.29,1.8-0.76,2.53-1.44c0.73-0.67,1.31-1.55,1.75-2.64c0.44-1.09,0.66-2.41,0.66-3.96c0-3.05-0.79-5.23-2.38-6.55 c-1.59-1.32-3.57-1.98-5.96-1.98H96.25z"></path> <path class="st7" d="M147.84,237.24c4.1,0,7.33,0.65,9.66,1.95c2.34,1.3,4.09,2.91,5.26,4.83c1.17,1.92,1.9,3.96,2.18,6.12 c0.29,2.16,0.43,4.09,0.43,5.81v3.98h-25.09c0,2.99,0.74,5.24,2.22,6.76c1.48,1.52,3.94,2.28,7.36,2.28c2.08,0,4.15-0.22,6.23-0.66 c2.08-0.44,4.1-1.02,6.08-1.75l2.26,6.82c-2.55,1.39-5.22,2.37-8.03,2.93c-2.81,0.57-5.53,0.85-8.18,0.85 c-3.85,0-7.01-0.53-9.49-1.6c-2.48-1.07-4.43-2.51-5.85-4.33c-1.42-1.82-2.4-3.91-2.94-6.27c-0.54-2.36-0.81-4.87-0.81-7.52 c0-2.08,0.26-4.31,0.78-6.7c0.52-2.39,1.48-4.57,2.88-6.55c1.4-1.97,3.31-3.62,5.73-4.95C140.94,237.9,144.05,237.24,147.84,237.24 M148.27,244.33c-1.41,0-2.58,0.23-3.53,0.7c-0.94,0.47-1.71,1.1-2.31,1.91c-0.6,0.81-1.06,1.74-1.37,2.81 c-0.31,1.06-0.52,2.17-0.63,3.31h14.81c-0.05-2.55-0.56-4.64-1.53-6.27C152.75,245.15,150.93,244.33,148.27,244.33z"></path> <path class="st7" d="M187.11,227.65v10.52h11.14v7.33h-11.14v17.3c0,2.03,0.36,3.52,1.09,4.48c0.73,0.96,2.08,1.44,4.05,1.44 c0.73,0,1.66-0.09,2.81-0.27c1.14-0.18,2.41-0.43,3.82-0.74l1.4,7.25c-1.66,0.73-3.48,1.27-5.46,1.64 c-1.98,0.36-3.79,0.55-5.45,0.55c-2.65,0-4.83-0.31-6.55-0.94c-1.72-0.62-3.07-1.45-4.05-2.49c-0.99-1.04-1.68-2.25-2.07-3.63 c-0.39-1.38-0.58-2.82-0.58-4.32V245.5h-5.38v-6.08l6.08-1.79c0.16-0.31,0.36-0.91,0.62-1.79c0.26-0.88,0.52-1.82,0.78-2.81 c0.26-0.98,0.52-1.92,0.78-2.8c0.26-0.88,0.44-1.48,0.55-1.79L187.11,227.65z"></path> <path class="st7" d="M217.97,245.03c1.04-1.04,2.18-2.03,3.43-2.96c1.25-0.94,2.52-1.77,3.82-2.49c1.3-0.73,2.57-1.3,3.82-1.71 c1.25-0.42,2.42-0.62,3.51-0.62c1.45,0,2.18,0.86,2.18,2.57c0,0.73-0.1,1.6-0.31,2.61c-0.21,1.01-0.48,2.05-0.82,3.12 c-0.34,1.06-0.72,2.06-1.13,3c-0.42,0.94-0.83,1.69-1.25,2.26l-13.01-0.16v25.87h-11.14v-38.26h10.99c0,0.88-0.05,1.97-0.16,3.27 c-0.1,1.3-0.21,2.39-0.31,3.27L217.97,245.03z"></path> <path class="st7" d="M277.74,257.34c0,2.65-0.34,5.18-1.01,7.6c-0.68,2.42-1.79,4.55-3.35,6.39c-1.56,1.84-3.59,3.3-6.08,4.36 c-2.49,1.06-5.56,1.6-9.19,1.6c-3.54,0-6.52-0.52-8.96-1.56c-2.44-1.04-4.42-2.46-5.92-4.25c-1.51-1.79-2.59-3.9-3.23-6.31 c-0.65-2.42-0.97-5-0.97-7.75c0-2.7,0.36-5.26,1.09-7.68c0.73-2.42,1.87-4.53,3.43-6.35c1.56-1.82,3.57-3.27,6.04-4.36 c2.47-1.09,5.47-1.64,9-1.64c3.58,0,6.6,0.53,9.04,1.6c2.44,1.07,4.42,2.52,5.92,4.36c1.51,1.84,2.58,3.97,3.23,6.39 C277.42,252.16,277.74,254.69,277.74,257.34 M266.21,257.42c0-1.51-0.1-2.99-0.31-4.44c-0.21-1.45-0.58-2.75-1.13-3.9 c-0.55-1.14-1.31-2.06-2.3-2.77c-0.99-0.7-2.29-1.05-3.9-1.05c-1.61,0-2.94,0.35-3.97,1.05c-1.04,0.7-1.87,1.63-2.49,2.77 c-0.62,1.14-1.05,2.44-1.29,3.9c-0.23,1.46-0.35,2.94-0.35,4.44c0,1.72,0.1,3.3,0.31,4.76c0.2,1.45,0.61,2.71,1.21,3.78 c0.6,1.07,1.41,1.91,2.46,2.53c1.04,0.62,2.41,0.94,4.13,0.94c1.56,0,2.84-0.32,3.86-0.97c1.01-0.65,1.79-1.53,2.34-2.65 c0.55-1.12,0.92-2.4,1.13-3.86C266.11,260.49,266.21,258.98,266.21,257.42z"></path> <polygon class="st7" points="298.16,276.51 287.01,276.51 287.01,220.72 298.24,220.72 "></polygon> <path class="st7" d="M326.21,237.24c4.1,0,7.33,0.65,9.66,1.95c2.34,1.3,4.09,2.91,5.26,4.83c1.17,1.92,1.9,3.96,2.18,6.12 c0.29,2.16,0.43,4.09,0.43,5.81v3.98h-25.09c0,2.99,0.74,5.24,2.22,6.76c1.48,1.52,3.94,2.28,7.36,2.28c2.08,0,4.16-0.22,6.23-0.66 c2.08-0.44,4.1-1.02,6.08-1.75l2.26,6.82c-2.55,1.39-5.22,2.37-8.03,2.93c-2.81,0.57-5.53,0.85-8.18,0.85 c-3.85,0-7.01-0.53-9.49-1.6c-2.48-1.07-4.43-2.51-5.85-4.33c-1.42-1.82-2.4-3.91-2.94-6.27c-0.54-2.36-0.81-4.87-0.81-7.52 c0-2.08,0.26-4.31,0.78-6.7c0.52-2.39,1.48-4.57,2.88-6.55c1.4-1.97,3.31-3.62,5.73-4.95C319.32,237.9,322.42,237.24,326.21,237.24 M326.64,244.33c-1.41,0-2.58,0.23-3.53,0.7c-0.94,0.47-1.71,1.1-2.31,1.91c-0.6,0.81-1.06,1.74-1.37,2.81 c-0.31,1.06-0.52,2.17-0.63,3.31h14.81c-0.05-2.55-0.56-4.64-1.53-6.27C331.12,245.15,329.31,244.33,326.64,244.33z"></path> <path class="st7" d="M363.46,277.37c-2.55,0-4.59-0.34-6.12-1.01c-1.53-0.67-2.72-1.61-3.55-2.81c-0.83-1.19-1.38-2.57-1.64-4.13 c-0.26-1.56-0.39-3.25-0.39-5.06v-26.11h11.14v23.69c0,0.93,0.05,1.82,0.16,2.65c0.1,0.83,0.34,1.56,0.7,2.18 c0.36,0.63,0.88,1.12,1.56,1.48c0.67,0.37,1.61,0.55,2.81,0.55c1.09,0,2.38-0.29,3.86-0.86c1.48-0.57,2.92-1.48,4.32-2.73v-26.96 c1.87,0,3.73-0.01,5.57-0.04c1.84-0.03,3.7-0.04,5.57-0.04v38.34H377.1c-0.1-0.67-0.16-1.35-0.16-2.02c0-0.67-0.05-1.38-0.16-2.1 l-0.31-0.16c-1.2,1.04-2.4,1.88-3.62,2.53c-1.22,0.65-2.4,1.17-3.54,1.56c-1.15,0.39-2.22,0.66-3.23,0.82 C365.06,277.29,364.19,277.37,363.46,277.37"></path> <path class="st7" d="M444.66,276.51v-24.24c0-2.13-0.35-3.7-1.05-4.71c-0.7-1.01-2.03-1.52-3.99-1.52c-1.19,0-2.57,0.26-4.14,0.78 c-1.58,0.52-2.9,1.14-3.99,1.87c0.1,0.83,0.18,1.69,0.23,2.57c0.05,0.88,0.08,1.69,0.08,2.42v22.83h-11.07 c0-4.21-0.01-8.38-0.04-12.51c-0.03-4.13-0.04-8.3-0.04-12.51c0-3.58-1.53-5.38-4.6-5.38c-1.3,0-2.69,0.26-4.17,0.78 c-1.48,0.52-2.9,1.2-4.25,2.03v27.59H396.5v-38.26h10.44l0.23,3.82l0.31,0.16c2.18-1.66,4.47-2.88,6.88-3.66 c2.41-0.78,4.52-1.17,6.34-1.17c4.31,0,7.39,1.66,9.26,4.99c0.93-0.73,1.98-1.39,3.15-1.99c1.17-0.6,2.37-1.12,3.62-1.56 c1.24-0.44,2.46-0.79,3.66-1.05c1.19-0.26,2.31-0.39,3.35-0.39c2.54,0,4.6,0.37,6.19,1.09c1.58,0.73,2.8,1.72,3.66,2.96 c0.86,1.25,1.44,2.69,1.75,4.32c0.31,1.64,0.47,3.34,0.47,5.1v25.64H444.66z"></path> <path class="st7" d="M212.42,156.72h11.14v38.26h-11.14V156.72z M212.42,140.12h11.14v10.47h-11.14V140.12z"></path> </g> </svg> 