<svg width="24" height="24" viewBox="0 0 24 24" fill="none" xmlns="http://www.w3.org/2000/svg">
<path d="M12 23C18.0751 23 23 18.0751 23 12C23 5.92487 18.0751 1 12 1C5.92487 1 1 5.92487 1 12C1 18.0751 5.92487 23 12 23Z" fill="#F0F0F0"/>
<path d="M3.27393 5.30298C2.40987 6.42717 1.75834 7.72289 1.37897 9.13051H7.10146L3.27393 5.30298Z" fill="#0052B4"/>
<path d="M22.6211 9.13047C22.2417 7.7229 21.5901 6.42717 20.7261 5.30298L16.8987 9.13047H22.6211Z" fill="#0052B4"/>
<path d="M1.37897 14.8695C1.75838 16.2771 2.40992 17.5728 3.27393 18.6969L7.10133 14.8695H1.37897Z" fill="#0052B4"/>
<path d="M18.6971 3.27391C17.5729 2.40986 16.2772 1.75832 14.8696 1.37891V7.10136L18.6971 3.27391Z" fill="#0052B4"/>
<path d="M5.30298 20.7261C6.42717 21.5901 7.72289 22.2417 9.13046 22.6211V16.8987L5.30298 20.7261Z" fill="#0052B4"/>
<path d="M9.13042 1.37891C7.72285 1.75832 6.42713 2.40986 5.30298 3.27387L9.13042 7.10131V1.37891Z" fill="#0052B4"/>
<path d="M14.8696 22.6211C16.2772 22.2417 17.5729 21.5901 18.6971 20.7261L14.8696 16.8987V22.6211Z" fill="#0052B4"/>
<path d="M16.8987 14.8695L20.7261 18.697C21.5901 17.5728 22.2417 16.2771 22.6211 14.8695H16.8987Z" fill="#0052B4"/>
<path d="M22.9069 10.5652H13.4349H13.4348V1.09311C12.9651 1.03197 12.4863 1 12 1C11.5136 1 11.0349 1.03197 10.5652 1.09311V10.5651V10.5652H1.09311C1.03197 11.0349 1 11.5137 1 12C1 12.4864 1.03197 12.9651 1.09311 13.4348H10.5651H10.5652V22.9069C11.0349 22.968 11.5136 23 12 23C12.4863 23 12.9651 22.9681 13.4348 22.9069V13.4349V13.4348H22.9069C22.968 12.9651 23 12.4864 23 12C23 11.5137 22.968 11.0349 22.9069 10.5652Z" fill="#D80027"/>
<path d="M14.8696 14.8696L19.7781 19.7781C20.0039 19.5525 20.2193 19.3165 20.4247 19.0719L16.2223 14.8695H14.8696V14.8696Z" fill="#D80027"/>
<path d="M9.13042 14.8698H9.13034L4.2218 19.7783C4.44747 20.004 4.68341 20.2194 4.92799 20.4249L9.13042 16.2224V14.8698Z" fill="#D80027"/>
<path d="M9.13043 9.13051V9.13043L4.22185 4.2218C3.99609 4.44747 3.78073 4.68342 3.57526 4.92799L7.77773 9.13047H9.13043V9.13051Z" fill="#D80027"/>
<path d="M14.8696 9.13041L19.7782 4.22175C19.5525 3.99599 19.3166 3.78063 19.072 3.5752L14.8696 7.77767V9.13041Z" fill="#D80027"/>
</svg>
