<svg width="24" height="24" viewBox="0 0 24 24" fill="none" xmlns="http://www.w3.org/2000/svg">
<path d="M12 23C18.0751 23 23 18.0751 23 12C23 5.92487 18.0751 1 12 1C5.92487 1 1 5.92487 1 12C1 18.0751 5.92487 23 12 23Z" fill="#F0F0F0"/>
<path d="M22.3158 15.8261C22.758 14.6344 23 13.3455 23 12C23 10.6545 22.758 9.3656 22.3158 8.17395H1.68419C1.24204 9.3656 1 10.6545 1 12C1 13.3455 1.24204 14.6344 1.68419 15.8261L12 16.7826L22.3158 15.8261Z" fill="#0052B4"/>
<path d="M12 23C16.7296 23 20.7616 20.0149 22.3158 15.826H1.6842C3.23843 20.0149 7.2704 23 12 23Z" fill="#D80027"/>
</svg>
